<svg width="20" height="19" viewBox="0 0 20 19" fill="none" xmlns="http://www.w3.org/2000/svg">
<path d="M19.2566 14.0885H0.778763C0.353985 14.0885 0.0354004 14.4425 0.0354004 14.8319C0.0354004 16.9912 1.76991 18.7257 3.92921 18.7257H16.1062C18.2655 18.7257 20 16.9912 20 14.8319C20 14.4425 19.6814 14.0885 19.2566 14.0885ZM16.1062 17.2389H3.92921C2.86726 17.2389 1.9823 16.5664 1.66372 15.6106H18.3717C18.0531 16.5664 17.1681 17.2389 16.1062 17.2389Z" fill="black"/>
<path d="M0.778761 9.84071H19.2212C19.646 9.84071 19.9646 9.48672 19.9646 9.09734C19.9646 4.0708 15.8938 0 10.8673 0H9.09734C4.0708 0 0 4.0708 0 9.09734C0.0353982 9.52212 0.353982 9.84071 0.778761 9.84071ZM9.13274 1.52212H10.9027C14.8319 1.52212 18.0531 4.53097 18.4425 8.35398H1.59292C1.9823 4.53097 5.20354 1.52212 9.13274 1.52212Z" fill="black"/>
<path d="M1.73451 11.1858C1.30973 11.1858 0.99115 11.5398 0.99115 11.9292C0.99115 12.354 1.34513 12.6725 1.73451 12.6725H18.3009C18.7257 12.6725 19.0442 12.3186 19.0442 11.9292C19.0442 11.5044 18.6903 11.1858 18.3009 11.1858H1.73451Z" fill="black"/>
</svg>
